nColumns=28
nRows=67
DataType=double
version=3
OpenSimVersion=4.1
endheader
time	ground_force_1_vx	ground_force_1_vy	ground_force_1_vz	ground_force_1_px	ground_force_1_py	ground_force_1_pz	ground_force_1_mx	ground_force_1_my	ground_force_1_mz	ground_force_2_vx	ground_force_2_vy	ground_force_2_vz	ground_force_2_px	ground_force_2_py	ground_force_2_pz	ground_force_2_mx	ground_force_2_my	ground_force_2_mz	ground_force_3_vx	ground_force_3_vy	ground_force_3_vz	ground_force_3_px	ground_force_3_py	ground_force_3_pz	ground_force_3_mx	ground_force_3_my	ground_force_3_mz
0	-3.96789	285.971	-33.3746	-0.20375	0.006	-0.377031	0	-1.48774	0	2.67725	314.655	37.2436	-0.205637	0.006	-0.762908	0	0.896076	0	0	0	0	0	0	0	0	0	0
0.01	-4.19017	285.228	-33.2148	-0.203223	0.006	-0.377015	0	-1.5062	0	2.59235	315.338	37.398	-0.205542	0.006	-0.763137	0	0.856617	0	0	0	0	0	0	0	0	0	0
0.02	-4.44072	284.376	-33.0297	-0.20263	0.006	-0.377011	0	-1.52689	0	2.50654	316.126	37.5849	-0.205449	0.006	-0.763371	0	0.818807	0	0	0	0	0	0	0	0	0	0
0.03	-4.71288	283.425	-32.8202	-0.201983	0.006	-0.377022	0	-1.54964	0	2.42313	317.01	37.8034	-0.205361	0.006	-0.763601	0	0.78386	0	0	0	0	0	0	0	0	0	0
0.04	-4.99705	282.386	-32.588	-0.201298	0.006	-0.377047	0	-1.57423	0	2.34482	317.98	38.0512	-0.205283	0.006	-0.763824	0	0.752452	0	0	0	0	0	0	0	0	0	0
0.05	-5.28165	281.276	-32.3359	-0.200594	0.006	-0.377088	0	-1.60043	0	2.27337	319.023	38.3249	-0.205216	0.006	-0.764035	0	0.724806	0	0	0	0	0	0	0	0	0	0
0.06	-5.55457	280.116	-32.0687	-0.199889	0.006	-0.377144	0	-1.62791	0	2.20973	320.124	38.6198	-0.205163	0.006	-0.764234	0	0.700769	0	0	0	0	0	0	0	0	0	0
0.07	-5.80457	278.925	-31.7919	-0.199204	0.006	-0.377211	0	-1.6563	0	2.15412	321.271	38.9311	-0.205126	0.006	-0.764419	0	0.679916	0	0	0	0	0	0	0	0	0	0
0.08	-6.02191	277.723	-31.5115	-0.198556	0.006	-0.377286	0	-1.68525	0	2.10616	322.451	39.2536	-0.205104	0.006	-0.764594	0	0.661731	0	0	0	0	0	0	0	0	0	0
0.09	-6.19873	276.523	-31.2323	-0.19796	0.006	-0.377367	0	-1.71447	0	2.06483	323.654	39.5832	-0.205099	0.006	-0.76476	0	0.645597	0	0	0	0	0	0	0	0	0	0
0.1	-6.33006	275.336	-30.9578	-0.197429	0.006	-0.377451	0	-1.74367	0	2.0289	324.872	39.9165	-0.20511	0.006	-0.76492	0	0.630938	0	0	0	0	0	0	0	0	0	0
0.11	-6.4142	274.167	-30.6895	-0.196971	0.006	-0.377535	0	-1.77257	0	1.99716	326.094	40.2512	-0.205137	0.006	-0.765075	0	0.617285	0	0	0	0	0	0	0	0	0	0
0.12	-6.45244	273.024	-30.4277	-0.196593	0.006	-0.377617	0	-1.80088	0	1.96864	327.307	40.5864	-0.205179	0.006	-0.765227	0	0.604318	0	0	0	0	0	0	0	0	0	0
0.13	-6.44872	271.912	-30.1716	-0.196297	0.006	-0.377698	0	-1.82842	0	1.9432	328.496	40.9213	-0.205235	0.006	-0.765377	0	0.591908	0	0	0	0	0	0	0	0	0	0
0.14	-6.40891	270.843	-29.9205	-0.196086	0.006	-0.377776	0	-1.85509	0	1.92153	329.638	41.2544	-0.205304	0.006	-0.765525	0	0.58008	0	0	0	0	0	0	0	0	0	0
0.15	-6.34081	269.836	-29.6741	-0.195958	0.006	-0.377854	0	-1.88077	0	1.9047	330.703	41.5829	-0.205386	0.006	-0.76567	0	0.568972	0	0	0	0	0	0	0	0	0	0
0.16	-6.25325	268.919	-29.4336	-0.195909	0.006	-0.377931	0	-1.90532	0	1.89388	331.659	41.9017	-0.20548	0.006	-0.765808	0	0.55881	0	0	0	0	0	0	0	0	0	0
0.17	-6.15532	268.126	-29.2026	-0.195932	0.006	-0.378007	0	-1.92856	0	1.89027	332.464	42.2043	-0.205586	0.006	-0.765936	0	0.549763	0	0	0	0	0	0	0	0	0	0
0.18	-6.05548	267.497	-28.9868	-0.196021	0.006	-0.378082	0	-1.95014	0	1.8947	333.076	42.4822	-0.205702	0.006	-0.76605	0	0.541961	0	0	0	0	0	0	0	0	0	0
0.19	-5.96113	267.075	-28.7935	-0.196165	0.006	-0.378153	0	-1.96965	0	1.90764	333.447	42.7266	-0.205827	0.006	-0.766147	0	0.535539	0	0	0	0	0	0	0	0	0	0
0.2	-5.8777	266.901	-28.6318	-0.196354	0.006	-0.378216	0	-1.98671	0	1.9289	333.53	42.9282	-0.205956	0.006	-0.766223	0	0.530563	0	0	0	0	0	0	0	0	0	0
0.21	-5.80797	267.012	-28.5118	-0.196576	0.006	-0.378267	0	-2.00101	0	1.95756	333.276	43.0778	-0.206085	0.006	-0.766274	0	0.5271	0	0	0	0	0	0	0	0	0	0
0.22	-5.75198	267.439	-28.4428	-0.196822	0.006	-0.378303	0	-2.01232	0	1.99189	332.641	43.1663	-0.206211	0.006	-0.766297	0	0.52535	0	0	0	0	0	0	0	0	0	0
0.23	-5.70685	268.205	-28.4333	-0.197086	0.006	-0.378318	0	-2.02051	0	2.02978	331.593	43.1855	-0.206328	0.006	-0.766291	0	0.525505	0	0	0	0	0	0	0	0	0	0
0.24	-5.66693	269.324	-28.4898	-0.197362	0.006	-0.37831	0	-2.02562	0	2.06928	330.108	43.1291	-0.206433	0.006	-0.766255	0	0.527744	0	0	0	0	0	0	0	0	0	0
0.25	-5.62405	270.802	-28.6173	-0.197651	0.006	-0.378275	0	-2.0277	0	2.1091	328.179	42.993	-0.206523	0.006	-0.76619	0	0.532228	0	0	0	0	0	0	0	0	0	0
0.26	-5.56826	272.638	-28.8192	-0.197953	0.006	-0.378211	0	-2.02684	0	2.14898	325.812	42.7761	-0.206599	0.006	-0.766095	0	0.539144	0	0	0	0	0	0	0	0	0	0
0.27	-5.48883	274.826	-29.0972	-0.198276	0.006	-0.378117	0	-2.02312	0	2.18974	323.029	42.4798	-0.20666	0.006	-0.765972	0	0.548747	0	0	0	0	0	0	0	0	0	0
0.28	-5.37514	277.353	-29.4515	-0.198628	0.006	-0.377994	0	-2.01664	0	2.23301	319.862	42.1087	-0.20671	0.006	-0.765822	0	0.561419	0	0	0	0	0	0	0	0	0	0
0.29	-5.21793	280.202	-29.8813	-0.199016	0.006	-0.377843	0	-2.00743	0	2.28116	316.357	41.6696	-0.206751	0.006	-0.765645	0	0.577665	0	0	0	0	0	0	0	0	0	0
0.3	-5.01014	283.347	-30.3841	-0.199449	0.006	-0.377668	0	-1.99543	0	2.33705	312.565	41.1712	-0.206787	0.006	-0.765445	0	0.597961	0	0	0	0	0	0	0	0	0	0
0.31	-4.74721	286.76	-30.9566	-0.199931	0.006	-0.377473	0	-1.9805	0	2.40336	308.547	40.6239	-0.206824	0.006	-0.765222	0	0.622567	0	0	0	0	0	0	0	0	0	0
0.32	-4.42758	290.405	-31.5932	-0.200466	0.006	-0.37726	0	-1.96248	0	2.48204	304.367	40.039	-0.206866	0.006	-0.76498	0	0.651464	0	0	0	0	0	0	0	0	0	0
0.33	-4.05313	294.243	-32.2865	-0.201053	0.006	-0.377035	0	-1.94122	0	2.57414	300.093	39.4288	-0.206919	0.006	-0.764721	0	0.684436	0	0	0	0	0	0	0	0	0	0
0.34	-3.62953	298.229	-33.0262	-0.20169	0.006	-0.376802	0	-1.91668	0	2.67976	295.793	38.8058	-0.206987	0.006	-0.764448	0	0.721156	0	0	0	0	0	0	0	0	0	0
0.35	-3.16574	302.315	-33.8003	-0.202369	0.006	-0.376565	0	-1.88904	0	2.79821	291.532	38.1822	-0.207075	0.006	-0.764163	0	0.761168	0	0	0	0	0	0	0	0	0	0
0.36	-2.67293	306.45	-34.5958	-0.203082	0.006	-0.376329	0	-1.85858	0	2.92793	287.368	37.5691	-0.207185	0.006	-0.76387	0	0.803776	0	0	0	0	0	0	0	0	0	0
0.37	-2.16342	310.588	-35.3984	-0.20382	0.006	-0.376099	0	-1.8257	0	3.06659	283.353	36.9756	-0.20732	0.006	-0.76357	0	0.848215	0	0	0	0	0	0	0	0	0	0
0.38	-1.64988	314.684	-36.1937	-0.204571	0.006	-0.375878	0	-1.79088	0	3.21095	279.526	36.4091	-0.207482	0.006	-0.763265	0	0.893721	0	0	0	0	0	0	0	0	0	0
0.39	-1.14471	318.695	-36.9676	-0.205325	0.006	-0.375672	0	-1.75472	0	3.35725	275.916	35.8744	-0.207668	0.006	-0.762959	0	0.939442	0	0	0	0	0	0	0	0	0	0
0.4	-0.659986	322.586	-37.7071	-0.206071	0.006	-0.375483	0	-1.71787	0	3.50154	272.538	35.3735	-0.207875	0.006	-0.762652	0	0.984444	0	0	0	0	0	0	0	0	0	0
0.41	-0.206928	326.328	-38.4018	-0.206799	0.006	-0.375316	0	-1.6811	0	3.63983	269.396	34.9055	-0.2081	0.006	-0.762347	0	1.02778	0	0	0	0	0	0	0	0	0	0
0.42	0.204241	329.9	-39.044	-0.207499	0.006	-0.375173	0	-1.64521	0	3.76829	266.483	34.4674	-0.208335	0.006	-0.762046	0	1.06863	0	0	0	0	0	0	0	0	0	0
0.43	0.564447	333.285	-39.6296	-0.208163	0.006	-0.375052	0	-1.61089	0	3.8832	263.786	34.0544	-0.208576	0.006	-0.76175	0	1.10633	0	0	0	0	0	0	0	0	0	0
0.44	0.866163	336.47	-40.1575	-0.208782	0.006	-0.374955	0	-1.57873	0	3.98088	261.286	33.6621	-0.208816	0.006	-0.76146	0	1.1403	0	0	0	0	0	0	0	0	0	0
0.45	1.10324	339.446	-40.629	-0.209349	0.006	-0.374879	0	-1.54913	0	4.05776	258.966	33.2866	-0.20905	0.006	-0.761179	0	1.17015	0	0	0	0	0	0	0	0	0	0
0.46	1.27112	342.202	-41.0469	-0.209857	0.006	-0.374822	0	-1.52221	0	4.11038	256.808	32.9251	-0.209272	0.006	-0.760905	0	1.19554	0	0	0	0	0	0	0	0	0	0
0.47	1.36735	344.726	-41.4144	-0.210302	0.006	-0.37478	0	-1.49792	0	4.13573	254.797	32.5764	-0.209473	0.006	-0.760638	0	1.2163	0	0	0	0	0	0	0	0	0	0
0.48	1.39198	347.009	-41.7337	-0.21068	0.006	-0.37475	0	-1.47607	0	4.13162	252.926	32.2411	-0.209649	0.006	-0.760379	0	1.23241	0	0	0	0	0	0	0	0	0	0
0.49	1.34742	349.041	-42.0063	-0.210989	0.006	-0.374731	0	-1.45641	0	4.09685	251.196	31.9217	-0.209797	0.006	-0.760127	0	1.24396	0	0	0	0	0	0	0	0	0	0
0.5	1.23834	350.813	-42.2319	-0.21123	0.006	-0.37472	0	-1.4387	0	4.03131	249.616	31.623	-0.209914	0.006	-0.759885	0	1.25114	0	0	0	0	0	0	0	0	0	0
0.51	1.07149	352.32	-42.4093	-0.211404	0.006	-0.374717	0	-1.42271	0	3.93642	248.209	31.3512	-0.21	0.006	-0.759654	0	1.25418	0	0	0	0	0	0	0	0	0	0
0.52	0.855496	353.558	-42.5359	-0.211514	0.006	-0.374721	0	-1.40823	0	3.81483	247.003	31.1137	-0.210055	0.006	-0.759441	0	1.25334	0	0	0	0	0	0	0	0	0	0
0.53	0.600692	354.53	-42.6086	-0.211565	0.006	-0.37473	0	-1.39516	0	3.66996	246.035	30.9185	-0.21008	0.006	-0.759249	0	1.24883	0	0	0	0	0	0	0	0	0	0
0.54	0.318663	355.234	-42.6239	-0.211563	0.006	-0.374747	0	-1.38351	0	3.50615	245.348	30.774	-0.21008	0.006	-0.759085	0	1.24091	0	0	0	0	0	0	0	0	0	0
0.55	0.021844	355.671	-42.5783	-0.211517	0.006	-0.37477	0	-1.37351	0	3.32839	244.985	30.6891	-0.210057	0.006	-0.758955	0	1.22982	0	0	0	0	0	0	0	0	0	0
0.56	-0.276919	355.837	-42.4674	-0.211434	0.006	-0.374801	0	-1.36548	0	3.14204	244.99	30.6731	-0.210016	0.006	-0.758863	0	1.21579	0	0	0	0	0	0	0	0	0	0
0.57	-0.565011	355.725	-42.2865	-0.211324	0.006	-0.374843	0	-1.35983	0	2.95262	245.404	30.7355	-0.20996	0.006	-0.758818	0	1.19924	0	0	0	0	0	0	0	0	0	0
0.58	-0.83101	355.324	-42.0305	-0.211195	0.006	-0.374896	0	-1.35688	0	2.76578	246.265	30.8863	-0.209892	0.006	-0.758825	0	1.18072	0	0	0	0	0	0	0	0	0	0
0.59	-1.06511	354.616	-41.6937	-0.211054	0.006	-0.374964	0	-1.35687	0	2.58687	247.605	31.1356	-0.209816	0.006	-0.758891	0	1.16082	0	0	0	0	0	0	0	0	0	0
0.6	-1.25927	353.58	-41.2709	-0.210907	0.006	-0.375048	0	-1.35992	0	2.42092	249.443	31.4925	-0.209731	0.006	-0.759019	0	1.14009	0	0	0	0	0	0	0	0	0	0
0.61	-1.4073	352.188	-40.7569	-0.210759	0.006	-0.375149	0	-1.36605	0	2.2727	251.791	31.9649	-0.209639	0.006	-0.759212	0	1.11896	0	0	0	0	0	0	0	0	0	0
0.62	-1.50474	350.409	-40.1477	-0.210614	0.006	-0.375269	0	-1.37518	0	2.14677	254.645	32.5588	-0.209539	0.006	-0.759469	0	1.09777	0	0	0	0	0	0	0	0	0	0
0.63	-1.54884	348.205	-39.4401	-0.210474	0.006	-0.37541	0	-1.38714	0	2.04773	257.989	33.2774	-0.209431	0.006	-0.759789	0	1.07686	0	0	0	0	0	0	0	0	0	0
0.64	-1.5387	345.537	-38.6327	-0.210341	0.006	-0.375572	0	-1.40159	0	1.98024	261.786	34.1204	-0.209316	0.006	-0.760168	0	1.05651	0	0	0	0	0	0	0	0	0	0
0.65	-1.47522	342.363	-37.7253	-0.210216	0.006	-0.375759	0	-1.41793	0	1.94896	265.982	35.0824	-0.209192	0.006	-0.760603	0	1.03696	0	0	0	0	0	0	0	0	0	0
0.66	-1.36113	338.639	-36.7197	-0.2101	0.006	-0.37597	0	-1.43534	0	1.95818	270.496	36.1526	-0.20906	0.006	-0.761085	0	1.01838	0	0	0	0	0	0	0	0	0	0
